<?xml version="1.0" encoding="utf-8"?>
<!-- Generator: Adobe Illustrator 22.0.0, SVG Export Plug-In . SVG Version: 6.00 Build 0)  -->
<svg version="1.1" id="Layer_1" xmlns="http://www.w3.org/2000/svg" xmlns:xlink="http://www.w3.org/1999/xlink" x="0px" y="0px"
	 viewBox="0 0 836.3 89.8" style="enable-background:new 0 0 836.3 89.8;" xml:space="preserve">
<style type="text/css">
	.st0{fill:#FFFFFF;}
</style>
<g>
	<g>
		<path class="st0" d="M44,2.6l39.5,84.7h-9.1L61,59.4H24.5L11.4,87.3H1.9l40-84.7H44z M42.9,20.6L28.4,51.2h29L42.9,20.6z"/>
		<path class="st0" d="M97.1,2.6H114c9.4,0,15.8,0.4,19.1,1.2c5,1.2,9.1,3.6,12.3,7.4c3.1,3.8,4.7,8.4,4.7,14
			c0,4.6-1.1,8.7-3.3,12.2c-2.2,3.5-5.3,6.1-9.3,7.9c-4,1.8-9.6,2.7-16.7,2.7l30.5,39.3h-10.5L110.3,48h-4.8v39.3h-8.5V2.6z
			 M105.6,10.9v28.8l14.6,0.1c5.7,0,9.8-0.5,12.5-1.6c2.7-1.1,4.8-2.8,6.3-5.2c1.5-2.4,2.3-5,2.3-7.9c0-2.8-0.8-5.4-2.3-7.7
			c-1.5-2.3-3.6-4-6.1-5c-2.5-1-6.7-1.5-12.5-1.5H105.6z"/>
		<path class="st0" d="M247.1,18.3l-6.7,5.1c-3.7-4.8-8.1-8.4-13.3-10.9c-5.2-2.5-10.8-3.7-17-3.7c-6.8,0-13,1.6-18.8,4.9
			c-5.8,3.2-10.2,7.6-13.4,13.1c-3.2,5.5-4.8,11.6-4.8,18.5c0,10.3,3.5,18.9,10.6,25.9c7.1,6.9,16,10.4,26.8,10.4
			c11.9,0,21.8-4.6,29.8-13.9l6.7,5.1c-4.2,5.4-9.5,9.5-15.8,12.5c-6.3,2.9-13.4,4.4-21.2,4.4c-14.8,0-26.5-4.9-35.1-14.8
			c-7.2-8.3-10.8-18.4-10.8-30.2c0-12.4,4.3-22.8,13-31.3C186,4.7,196.9,0.5,210,0.5c7.9,0,15,1.6,21.4,4.7
			C237.8,8.3,243,12.7,247.1,18.3z"/>
		<path class="st0" d="M264,2.6h8.5v35.5h43.1V2.6h8.5v84.7h-8.5V46.4h-43.1v40.9H264V2.6z"/>
		<path class="st0" d="M343.4,2.6h8.5v84.7h-8.5V2.6z"/>
		<path class="st0" d="M371.2,2.6h16.9c9.7,0,16.2,0.4,19.6,1.3c4.8,1.2,8.8,3.6,11.9,7.3c3.1,3.7,4.6,8.4,4.6,14
			c0,5.6-1.5,10.3-4.5,14c-3,3.7-7.1,6.1-12.4,7.4c-3.8,0.9-11,1.4-21.5,1.4h-6v39.4h-8.5V2.6z M379.7,10.9v28.7l14.3,0.2
			c5.8,0,10-0.5,12.7-1.6c2.7-1.1,4.8-2.8,6.3-5.1c1.5-2.4,2.3-5,2.3-7.9c0-2.8-0.8-5.4-2.3-7.8c-1.5-2.4-3.6-4-6.1-5
			c-2.5-1-6.6-1.5-12.4-1.5H379.7z"/>
		<path class="st0" d="M441.1,2.6h48.5v8.3h-40.1v26.5h39.7v8.3h-39.7V79h39.7v8.3h-48.2V2.6z"/>
		<path class="st0" d="M504.3,2.6h8.5v76.5h32.6v8.2h-41.1V2.6z"/>
		<path class="st0" d="M593.4,2.6l39.5,84.7h-9.1l-13.3-27.9h-36.5l-13.2,27.9h-9.4l40-84.7H593.4z M592.3,20.6l-14.5,30.7h29
			L592.3,20.6z"/>
		<path class="st0" d="M727.7,16.8l-6.6,6.2c-4.7-4.6-9.9-8.2-15.5-10.6c-5.6-2.4-11.1-3.6-16.4-3.6c-6.6,0-13,1.6-19,4.9
			c-6,3.3-10.7,7.7-14,13.3c-3.3,5.6-5,11.5-5,17.7c0,6.4,1.7,12.4,5.1,18.2c3.4,5.7,8.1,10.2,14.2,13.5c6,3.3,12.6,4.9,19.8,4.9
			c8.7,0,16.1-2.5,22.1-7.4c6-4.9,9.6-11.3,10.7-19.1h-27v-8.2h36.5c-0.1,13.1-4,23.5-11.7,31.2c-7.7,7.7-18,11.5-30.9,11.5
			c-15.7,0-28.1-5.3-37.2-16c-7-8.2-10.5-17.7-10.5-28.5c0-8,2-15.5,6-22.4c4-6.9,9.6-12.3,16.6-16.2c7-3.9,15-5.8,23.8-5.8
			c7.2,0,13.9,1.3,20.3,3.9C715.5,6.9,721.7,11.1,727.7,16.8z"/>
		<path class="st0" d="M789.2,0.5c12.8,0,23.6,4.3,32.2,12.8c8.6,8.6,13,19.1,13,31.6c0,12.4-4.3,22.9-12.9,31.6
			c-8.6,8.6-19.1,13-31.5,13c-12.6,0-23.2-4.3-31.8-12.9c-8.6-8.6-13-19-13-31.2c0-8.1,2-15.7,5.9-22.6c3.9-6.9,9.3-12.4,16.1-16.3
			C773.9,2.4,781.3,0.5,789.2,0.5z M789.6,8.7c-6.3,0-12.2,1.6-17.8,4.9c-5.6,3.3-10,7.7-13.1,13.2c-3.2,5.5-4.7,11.7-4.7,18.5
			c0,10.1,3.5,18.6,10.5,25.5c7,6.9,15.4,10.4,25.2,10.4c6.6,0,12.7-1.6,18.3-4.8c5.6-3.2,10-7.5,13.1-13.1
			c3.1-5.5,4.7-11.7,4.7-18.4c0-6.7-1.6-12.8-4.7-18.2c-3.1-5.4-7.5-9.8-13.2-13.1C802,10.3,795.9,8.7,789.6,8.7z"/>
	</g>
</g>
</svg>
